<mxfile host="app.diagrams.net" agent="Mozilla/5.0 (Windows NT 10.0; Win64; x64) AppleWebKit/537.36 (KHTML, like Gecko) Chrome/128.0.0.0 YaBrowser/24.10.0.0 Safari/537.36" version="24.8.3">
  <diagram name="Страница — 1" id="tyL-LJRgACF1P0J_mqjf">
    <mxGraphModel dx="2183" dy="2355" grid="1" gridSize="10" guides="1" tooltips="1" connect="1" arrows="1" fold="1" page="1" pageScale="1" pageWidth="827" pageHeight="1169" math="0" shadow="0">
      <root>
        <mxCell id="0" />
        <mxCell id="1" parent="0" />
        <mxCell id="-C6muNnnNIedRkviX2KE-14" value="" style="rounded=1;whiteSpace=wrap;html=1;" parent="1" vertex="1">
          <mxGeometry y="430" width="190" height="410" as="geometry" />
        </mxCell>
        <mxCell id="-C6muNnnNIedRkviX2KE-15" value="" style="rounded=1;whiteSpace=wrap;html=1;" parent="1" vertex="1">
          <mxGeometry x="250" y="-141.5" width="190" height="410" as="geometry" />
        </mxCell>
        <mxCell id="-C6muNnnNIedRkviX2KE-48" style="edgeStyle=orthogonalEdgeStyle;rounded=0;orthogonalLoop=1;jettySize=auto;html=1;exitX=1;exitY=0.5;exitDx=0;exitDy=0;entryX=0;entryY=0.5;entryDx=0;entryDy=0;strokeWidth=3;strokeColor=#000000;" parent="1" source="-C6muNnnNIedRkviX2KE-18" target="-C6muNnnNIedRkviX2KE-46" edge="1">
          <mxGeometry relative="1" as="geometry" />
        </mxCell>
        <mxCell id="-C6muNnnNIedRkviX2KE-18" value="" style="rounded=1;whiteSpace=wrap;html=1;" parent="1" vertex="1">
          <mxGeometry x="255.5" y="1050" width="190" height="410" as="geometry" />
        </mxCell>
        <mxCell id="-C6muNnnNIedRkviX2KE-19" value="" style="rounded=1;whiteSpace=wrap;html=1;" parent="1" vertex="1">
          <mxGeometry x="250" y="430" width="190" height="410" as="geometry" />
        </mxCell>
        <mxCell id="-C6muNnnNIedRkviX2KE-25" value="Главный экран приложения.&lt;br&gt;&lt;font style=&quot;font-size: 20px;&quot;&gt;&lt;b&gt;экран #0.0&lt;/b&gt;&lt;/font&gt;" style="text;html=1;align=center;verticalAlign=middle;whiteSpace=wrap;rounded=0;fontSize=17;" parent="1" vertex="1">
          <mxGeometry x="15" y="840" width="160" height="80" as="geometry" />
        </mxCell>
        <mxCell id="-C6muNnnNIedRkviX2KE-27" value="Меню 1.&lt;br&gt;Выбор фичи.&lt;br&gt;&lt;font style=&quot;font-size: 20px;&quot;&gt;&lt;b&gt;экран #0.1&lt;/b&gt;&lt;/font&gt;" style="text;html=1;align=center;verticalAlign=middle;whiteSpace=wrap;rounded=0;fontFamily=Helvetica;fontSize=17;fontColor=default;" parent="1" vertex="1">
          <mxGeometry x="292.5" y="840" width="117.5" height="70" as="geometry" />
        </mxCell>
        <mxCell id="-C6muNnnNIedRkviX2KE-28" value="Страница с открытым видео.&lt;br&gt;&lt;font style=&quot;font-size: 20px;&quot;&gt;&lt;b&gt;экран #1.0&lt;/b&gt;&lt;/font&gt;" style="text;html=1;align=center;verticalAlign=middle;whiteSpace=wrap;rounded=0;fontFamily=Helvetica;fontSize=17;fontColor=default;" parent="1" vertex="1">
          <mxGeometry x="254.5" y="268.5" width="192" height="70" as="geometry" />
        </mxCell>
        <mxCell id="-C6muNnnNIedRkviX2KE-31" value="Страница профиля.&lt;br&gt;&lt;font style=&quot;font-size: 20px;&quot;&gt;&lt;b&gt;экран #4.0&lt;/b&gt;&lt;/font&gt;" style="text;html=1;align=center;verticalAlign=middle;whiteSpace=wrap;rounded=0;fontFamily=Helvetica;fontSize=17;fontColor=default;" parent="1" vertex="1">
          <mxGeometry x="250" y="1470" width="192" height="70" as="geometry" />
        </mxCell>
        <mxCell id="wee1dHJc4e0RbnXhPv3R-13" style="edgeStyle=orthogonalEdgeStyle;rounded=0;orthogonalLoop=1;jettySize=auto;html=1;exitX=1;exitY=0.5;exitDx=0;exitDy=0;dashed=1;strokeColor=default;strokeWidth=3;align=center;verticalAlign=middle;spacing=6;fontFamily=Helvetica;fontSize=14;fontColor=default;labelBackgroundColor=#ffffff;startArrow=none;startFill=0;startSize=6;endArrow=classic;endFill=1;endSize=6;entryX=0;entryY=0.5;entryDx=0;entryDy=0;" edge="1" parent="1" source="wee1dHJc4e0RbnXhPv3R-10" target="-C6muNnnNIedRkviX2KE-52">
          <mxGeometry relative="1" as="geometry">
            <mxPoint x="940" y="480" as="targetPoint" />
          </mxGeometry>
        </mxCell>
        <mxCell id="-C6muNnnNIedRkviX2KE-32" value="" style="rounded=1;whiteSpace=wrap;html=1;" parent="1" vertex="1">
          <mxGeometry x="570.73" y="430" width="190" height="410" as="geometry" />
        </mxCell>
        <mxCell id="-C6muNnnNIedRkviX2KE-33" value="Меню 2.&lt;br&gt;Выбор папок.&lt;br&gt;&lt;font style=&quot;font-size: 20px;&quot;&gt;&lt;b&gt;экран #0.2&lt;/b&gt;&lt;/font&gt;" style="text;html=1;align=center;verticalAlign=middle;whiteSpace=wrap;rounded=0;fontFamily=Helvetica;fontSize=17;fontColor=default;" parent="1" vertex="1">
          <mxGeometry x="613.23" y="840" width="117.5" height="70" as="geometry" />
        </mxCell>
        <mxCell id="-C6muNnnNIedRkviX2KE-46" value="" style="rounded=1;whiteSpace=wrap;html=1;" parent="1" vertex="1">
          <mxGeometry x="572.75" y="1050" width="190" height="410" as="geometry" />
        </mxCell>
        <mxCell id="-C6muNnnNIedRkviX2KE-47" value="Страница папок.&lt;br&gt;&lt;font style=&quot;font-size: 20px;&quot;&gt;&lt;b&gt;экран #4.1&lt;/b&gt;&lt;/font&gt;" style="text;html=1;align=center;verticalAlign=middle;whiteSpace=wrap;rounded=0;fontFamily=Helvetica;fontSize=17;fontColor=default;" parent="1" vertex="1">
          <mxGeometry x="567.25" y="1470" width="192" height="70" as="geometry" />
        </mxCell>
        <mxCell id="-C6muNnnNIedRkviX2KE-50" value="" style="rounded=1;whiteSpace=wrap;html=1;" parent="1" vertex="1">
          <mxGeometry x="882.7" y="1050" width="190" height="410" as="geometry" />
        </mxCell>
        <mxCell id="-C6muNnnNIedRkviX2KE-51" value="Меню 3.&lt;br&gt;Выбор каналов.&lt;br&gt;&lt;font style=&quot;font-size: 20px;&quot;&gt;&lt;b&gt;экран #4.2&lt;/b&gt;&lt;/font&gt;" style="text;html=1;align=center;verticalAlign=middle;whiteSpace=wrap;rounded=0;fontFamily=Helvetica;fontSize=17;fontColor=default;" parent="1" vertex="1">
          <mxGeometry x="925.2" y="1460" width="144.75" height="70" as="geometry" />
        </mxCell>
        <mxCell id="-C6muNnnNIedRkviX2KE-52" value="" style="rounded=1;whiteSpace=wrap;html=1;" parent="1" vertex="1">
          <mxGeometry x="953.5" y="405" width="190" height="410" as="geometry" />
        </mxCell>
        <mxCell id="-C6muNnnNIedRkviX2KE-53" value="Страница просмотра папки.&lt;br&gt;&lt;font style=&quot;font-size: 20px;&quot;&gt;&lt;b&gt;экран #5.0&lt;/b&gt;&lt;/font&gt;" style="text;html=1;align=center;verticalAlign=middle;whiteSpace=wrap;rounded=0;fontFamily=Helvetica;fontSize=17;fontColor=default;" parent="1" vertex="1">
          <mxGeometry x="958" y="815" width="192" height="70" as="geometry" />
        </mxCell>
        <mxCell id="-C6muNnnNIedRkviX2KE-63" value="" style="endArrow=classic;html=1;rounded=0;exitX=0.5;exitY=0;exitDx=0;exitDy=0;entryX=0;entryY=0.5;entryDx=0;entryDy=0;strokeColor=#676565;opacity=70;align=center;verticalAlign=middle;fontFamily=Helvetica;fontSize=11;fontColor=default;labelBackgroundColor=default;" parent="1" source="9P0sogdfffshUX55kIWg-8" target="-C6muNnnNIedRkviX2KE-52" edge="1">
          <mxGeometry width="50" height="50" relative="1" as="geometry">
            <mxPoint x="830" y="960" as="sourcePoint" />
            <mxPoint x="880" y="910" as="targetPoint" />
          </mxGeometry>
        </mxCell>
        <mxCell id="wee1dHJc4e0RbnXhPv3R-21" style="edgeStyle=orthogonalEdgeStyle;rounded=0;orthogonalLoop=1;jettySize=auto;html=1;exitX=0;exitY=1;exitDx=0;exitDy=0;entryX=0.5;entryY=0;entryDx=0;entryDy=0;" edge="1" parent="1" source="-C6muNnnNIedRkviX2KE-66" target="-C6muNnnNIedRkviX2KE-67">
          <mxGeometry relative="1" as="geometry" />
        </mxCell>
        <mxCell id="wee1dHJc4e0RbnXhPv3R-22" style="edgeStyle=orthogonalEdgeStyle;rounded=0;orthogonalLoop=1;jettySize=auto;html=1;exitX=1;exitY=1;exitDx=0;exitDy=0;entryX=0.5;entryY=0;entryDx=0;entryDy=0;" edge="1" parent="1" source="-C6muNnnNIedRkviX2KE-66" target="-C6muNnnNIedRkviX2KE-69">
          <mxGeometry relative="1" as="geometry" />
        </mxCell>
        <mxCell id="-C6muNnnNIedRkviX2KE-66" value="&lt;font style=&quot;font-size: 15px;&quot;&gt;В случае если канал уже содержится в определённой папке, то:&lt;br&gt;папка для экрана 0.2 или канал для экрана 4.2 не должны иметь возможность быть выделенными пользователем&lt;/font&gt;" style="rounded=0;whiteSpace=wrap;html=1;" parent="1" vertex="1">
          <mxGeometry x="1275.25" y="840" width="270" height="181.5" as="geometry" />
        </mxCell>
        <mxCell id="-C6muNnnNIedRkviX2KE-67" value="" style="rounded=1;whiteSpace=wrap;html=1;" parent="1" vertex="1">
          <mxGeometry x="1180" y="1116.9" width="190" height="410" as="geometry" />
        </mxCell>
        <mxCell id="-C6muNnnNIedRkviX2KE-69" value="" style="rounded=1;whiteSpace=wrap;html=1;" parent="1" vertex="1">
          <mxGeometry x="1450" y="1116.9" width="190" height="410" as="geometry" />
        </mxCell>
        <mxCell id="_7QspawQS4Bvhs6pEfHS-41" value="" style="group" parent="1" vertex="1" connectable="0">
          <mxGeometry x="10" y="440" width="110" height="20" as="geometry" />
        </mxCell>
        <mxCell id="_7QspawQS4Bvhs6pEfHS-35" value="&lt;font size=&quot;1&quot; style=&quot;&quot;&gt;&lt;b style=&quot;font-size: 20px;&quot;&gt;YouTube&lt;/b&gt;&lt;/font&gt;" style="text;html=1;align=center;verticalAlign=middle;whiteSpace=wrap;rounded=0;" parent="_7QspawQS4Bvhs6pEfHS-41" vertex="1">
          <mxGeometry x="30" width="80" height="20" as="geometry" />
        </mxCell>
        <mxCell id="_7QspawQS4Bvhs6pEfHS-36" value="" style="group" parent="_7QspawQS4Bvhs6pEfHS-41" vertex="1" connectable="0">
          <mxGeometry width="30" height="20" as="geometry" />
        </mxCell>
        <mxCell id="_7QspawQS4Bvhs6pEfHS-37" value="" style="rounded=1;whiteSpace=wrap;html=1;arcSize=33;fillColor=#f8cecc;strokeColor=#b85450;" parent="_7QspawQS4Bvhs6pEfHS-36" vertex="1">
          <mxGeometry width="30" height="20" as="geometry" />
        </mxCell>
        <mxCell id="_7QspawQS4Bvhs6pEfHS-38" value="" style="triangle;whiteSpace=wrap;html=1;" parent="_7QspawQS4Bvhs6pEfHS-36" vertex="1">
          <mxGeometry x="9.15" width="14.85" height="20" as="geometry" />
        </mxCell>
        <mxCell id="_7QspawQS4Bvhs6pEfHS-45" value="" style="group" parent="1" vertex="1" connectable="0">
          <mxGeometry x="10" y="778.8100000000001" width="42.5" height="58" as="geometry" />
        </mxCell>
        <mxCell id="_7QspawQS4Bvhs6pEfHS-43" value="" style="sketch=0;pointerEvents=1;shadow=0;dashed=0;html=1;strokeColor=none;fillColor=#505050;labelPosition=center;verticalLabelPosition=bottom;verticalAlign=top;outlineConnect=0;align=center;shape=mxgraph.office.concepts.home;" parent="_7QspawQS4Bvhs6pEfHS-45" vertex="1">
          <mxGeometry width="39" height="38" as="geometry" />
        </mxCell>
        <mxCell id="_7QspawQS4Bvhs6pEfHS-44" value="Главная" style="text;html=1;align=center;verticalAlign=middle;whiteSpace=wrap;rounded=0;" parent="_7QspawQS4Bvhs6pEfHS-45" vertex="1">
          <mxGeometry x="9" y="38" width="30" height="20" as="geometry" />
        </mxCell>
        <mxCell id="_7QspawQS4Bvhs6pEfHS-66" value="" style="group" parent="1" vertex="1" connectable="0">
          <mxGeometry x="130" y="774.39" width="60" height="61.22000000000003" as="geometry" />
        </mxCell>
        <mxCell id="_7QspawQS4Bvhs6pEfHS-63" value="" style="ellipse;whiteSpace=wrap;html=1;aspect=fixed;" parent="_7QspawQS4Bvhs6pEfHS-66" vertex="1">
          <mxGeometry width="50" height="50" as="geometry" />
        </mxCell>
        <mxCell id="_7QspawQS4Bvhs6pEfHS-64" value="" style="shape=actor;whiteSpace=wrap;html=1;" parent="_7QspawQS4Bvhs6pEfHS-66" vertex="1">
          <mxGeometry x="11.5" y="6.8700000000000045" width="27" height="33.13" as="geometry" />
        </mxCell>
        <mxCell id="_7QspawQS4Bvhs6pEfHS-65" value="Вы" style="text;html=1;align=center;verticalAlign=middle;whiteSpace=wrap;rounded=0;" parent="_7QspawQS4Bvhs6pEfHS-66" vertex="1">
          <mxGeometry x="11.5" y="52.5" width="27" height="8.72" as="geometry" />
        </mxCell>
        <mxCell id="_7QspawQS4Bvhs6pEfHS-82" value="" style="ellipse;whiteSpace=wrap;html=1;aspect=fixed;fillColor=#4C303B;fontColor=#ffffff;strokeColor=#3700CC;opacity=50;" parent="_7QspawQS4Bvhs6pEfHS-66" vertex="1">
          <mxGeometry x="-6.25" y="-1.28" width="62.5" height="62.5" as="geometry" />
        </mxCell>
        <mxCell id="_7QspawQS4Bvhs6pEfHS-67" value="&lt;font style=&quot;font-size: 15px;&quot;&gt;Видео 1&lt;/font&gt;" style="rounded=0;whiteSpace=wrap;html=1;" parent="1" vertex="1">
          <mxGeometry x="10" y="510" width="159" height="80" as="geometry" />
        </mxCell>
        <mxCell id="_7QspawQS4Bvhs6pEfHS-68" value="" style="html=1;verticalLabelPosition=bottom;align=center;labelBackgroundColor=#ffffff;verticalAlign=top;strokeWidth=2;strokeColor=#0080F0;shadow=0;dashed=0;shape=mxgraph.ios7.icons.most_viewed;pointerEvents=1" parent="1" vertex="1">
          <mxGeometry x="140.8" y="600" width="28.2" height="22.8" as="geometry" />
        </mxCell>
        <mxCell id="_7QspawQS4Bvhs6pEfHS-69" value="" style="ellipse;whiteSpace=wrap;html=1;aspect=fixed;fillColor=#4C303B;fontColor=#ffffff;strokeColor=#3700CC;opacity=50;" parent="1" vertex="1">
          <mxGeometry x="130" y="591" width="49.9" height="49.9" as="geometry" />
        </mxCell>
        <mxCell id="wee1dHJc4e0RbnXhPv3R-4" style="edgeStyle=orthogonalEdgeStyle;rounded=0;orthogonalLoop=1;jettySize=auto;html=1;exitX=1;exitY=0.5;exitDx=0;exitDy=0;entryX=0;entryY=0.75;entryDx=0;entryDy=0;strokeColor=#000000;strokeWidth=3;align=center;verticalAlign=middle;fontFamily=Helvetica;fontSize=11;fontColor=default;labelBackgroundColor=default;endArrow=classic;" edge="1" parent="1" source="_7QspawQS4Bvhs6pEfHS-93" target="-C6muNnnNIedRkviX2KE-15">
          <mxGeometry relative="1" as="geometry" />
        </mxCell>
        <mxCell id="_7QspawQS4Bvhs6pEfHS-93" value="" style="ellipse;whiteSpace=wrap;html=1;opacity=50;strokeColor=#3700CC;align=center;verticalAlign=middle;fontFamily=Helvetica;fontSize=12;fontColor=#ffffff;fillColor=#4C303B;" parent="1" vertex="1">
          <mxGeometry x="5" y="510" width="175" height="75" as="geometry" />
        </mxCell>
        <mxCell id="_7QspawQS4Bvhs6pEfHS-98" value="" style="shape=singleArrow;direction=west;whiteSpace=wrap;html=1;" parent="1" vertex="1">
          <mxGeometry x="255.5" y="440" width="50" height="30" as="geometry" />
        </mxCell>
        <mxCell id="_7QspawQS4Bvhs6pEfHS-99" value="" style="shape=singleArrow;direction=west;whiteSpace=wrap;html=1;" parent="1" vertex="1">
          <mxGeometry x="580.73" y="440" width="50" height="30" as="geometry" />
        </mxCell>
        <mxCell id="_7QspawQS4Bvhs6pEfHS-100" value="" style="shape=singleArrow;direction=west;whiteSpace=wrap;html=1;" parent="1" vertex="1">
          <mxGeometry x="889.95" y="1061" width="50" height="30" as="geometry" />
        </mxCell>
        <mxCell id="_7QspawQS4Bvhs6pEfHS-101" value="" style="shape=singleArrow;direction=west;whiteSpace=wrap;html=1;" parent="1" vertex="1">
          <mxGeometry x="580" y="1060" width="50" height="30" as="geometry" />
        </mxCell>
        <mxCell id="_7QspawQS4Bvhs6pEfHS-102" value="Добавить в начало очереди" style="rounded=0;whiteSpace=wrap;html=1;fillColor=#f5f5f5;fontColor=#999999;strokeColor=#666666;" parent="1" vertex="1">
          <mxGeometry x="270" y="490" width="150" height="60" as="geometry" />
        </mxCell>
        <mxCell id="_7QspawQS4Bvhs6pEfHS-103" value="Добавить видео в плейлист" style="rounded=0;whiteSpace=wrap;html=1;fillColor=#f5f5f5;fontColor=#999999;strokeColor=#666666;align=center;verticalAlign=middle;fontFamily=Helvetica;fontSize=12;" parent="1" vertex="1">
          <mxGeometry x="271" y="570" width="150" height="60" as="geometry" />
        </mxCell>
        <mxCell id="wee1dHJc4e0RbnXhPv3R-5" style="edgeStyle=orthogonalEdgeStyle;rounded=0;orthogonalLoop=1;jettySize=auto;html=1;exitX=1;exitY=0.5;exitDx=0;exitDy=0;strokeColor=#000000;strokeWidth=3;align=center;verticalAlign=middle;fontFamily=Helvetica;fontSize=11;fontColor=default;labelBackgroundColor=default;endArrow=classic;" edge="1" parent="1" source="_7QspawQS4Bvhs6pEfHS-104">
          <mxGeometry relative="1" as="geometry">
            <mxPoint x="570" y="680.181818181818" as="targetPoint" />
          </mxGeometry>
        </mxCell>
        <mxCell id="_7QspawQS4Bvhs6pEfHS-104" value="Добавить канал в папку" style="rounded=0;whiteSpace=wrap;html=1;strokeWidth=3;fillColor=#f8cecc;strokeColor=#b85450;" parent="1" vertex="1">
          <mxGeometry x="271" y="650" width="150" height="60" as="geometry" />
        </mxCell>
        <mxCell id="_7QspawQS4Bvhs6pEfHS-105" value="Поделиться" style="rounded=0;whiteSpace=wrap;html=1;fillColor=#f5f5f5;fontColor=#999999;strokeColor=#666666;align=center;verticalAlign=middle;fontFamily=Helvetica;fontSize=12;" parent="1" vertex="1">
          <mxGeometry x="270" y="730" width="150" height="60" as="geometry" />
        </mxCell>
        <mxCell id="_7QspawQS4Bvhs6pEfHS-110" value="" style="group" parent="1" vertex="1" connectable="0">
          <mxGeometry x="1004" y="1062.75" width="74.5" height="60" as="geometry" />
        </mxCell>
        <mxCell id="_7QspawQS4Bvhs6pEfHS-111" value="&lt;font style=&quot;font-size: 15px;&quot;&gt;Готово&lt;/font&gt;" style="text;html=1;align=center;verticalAlign=middle;whiteSpace=wrap;rounded=0;" parent="_7QspawQS4Bvhs6pEfHS-110" vertex="1">
          <mxGeometry x="14.5" y="6" width="60" height="30" as="geometry" />
        </mxCell>
        <mxCell id="_7QspawQS4Bvhs6pEfHS-112" value="" style="verticalLabelPosition=bottom;verticalAlign=top;html=1;shape=mxgraph.basic.tick" parent="_7QspawQS4Bvhs6pEfHS-110" vertex="1">
          <mxGeometry width="30" height="30" as="geometry" />
        </mxCell>
        <mxCell id="wee1dHJc4e0RbnXhPv3R-8" value="" style="ellipse;whiteSpace=wrap;html=1;aspect=fixed;fillColor=#f8cecc;strokeColor=#b85450;opacity=50;" vertex="1" parent="_7QspawQS4Bvhs6pEfHS-110">
          <mxGeometry y="-10.969999999999999" width="63.95" height="63.95" as="geometry" />
        </mxCell>
        <mxCell id="_7QspawQS4Bvhs6pEfHS-117" value="" style="whiteSpace=wrap;html=1;aspect=fixed;" parent="1" vertex="1">
          <mxGeometry x="575.73" y="540" width="30" height="30" as="geometry" />
        </mxCell>
        <mxCell id="_7QspawQS4Bvhs6pEfHS-115" value="" style="verticalLabelPosition=bottom;verticalAlign=top;html=1;shape=mxgraph.basic.tick" parent="1" vertex="1">
          <mxGeometry x="575.73" y="540" width="30" height="30" as="geometry" />
        </mxCell>
        <mxCell id="_7QspawQS4Bvhs6pEfHS-118" value="" style="whiteSpace=wrap;html=1;aspect=fixed;" parent="1" vertex="1">
          <mxGeometry x="575.73" y="630" width="30" height="30" as="geometry" />
        </mxCell>
        <mxCell id="_7QspawQS4Bvhs6pEfHS-119" value="" style="verticalLabelPosition=bottom;verticalAlign=top;html=1;shape=mxgraph.basic.tick" parent="1" vertex="1">
          <mxGeometry x="575.73" y="630" width="30" height="30" as="geometry" />
        </mxCell>
        <mxCell id="_7QspawQS4Bvhs6pEfHS-120" value="" style="whiteSpace=wrap;html=1;aspect=fixed;" parent="1" vertex="1">
          <mxGeometry x="575.73" y="585" width="30" height="30" as="geometry" />
        </mxCell>
        <mxCell id="_7QspawQS4Bvhs6pEfHS-121" value="Папка 1" style="text;html=1;align=center;verticalAlign=middle;whiteSpace=wrap;rounded=0;fontSize=15;" parent="1" vertex="1">
          <mxGeometry x="614.23" y="541" width="60" height="30" as="geometry" />
        </mxCell>
        <mxCell id="_7QspawQS4Bvhs6pEfHS-122" value="Папка 2" style="text;html=1;align=center;verticalAlign=middle;whiteSpace=wrap;rounded=0;fontSize=15;" parent="1" vertex="1">
          <mxGeometry x="613.23" y="585" width="60" height="30" as="geometry" />
        </mxCell>
        <mxCell id="_7QspawQS4Bvhs6pEfHS-123" value="Папка 3" style="text;html=1;align=center;verticalAlign=middle;whiteSpace=wrap;rounded=0;fontSize=15;" parent="1" vertex="1">
          <mxGeometry x="614.23" y="630" width="60" height="30" as="geometry" />
        </mxCell>
        <mxCell id="_7QspawQS4Bvhs6pEfHS-124" value="" style="ellipse;whiteSpace=wrap;html=1;aspect=fixed;fillColor=#f8cecc;strokeColor=#b85450;opacity=50;" parent="1" vertex="1">
          <mxGeometry x="565.78" y="620.05" width="49.9" height="49.9" as="geometry" />
        </mxCell>
        <mxCell id="_7QspawQS4Bvhs6pEfHS-125" value="" style="ellipse;whiteSpace=wrap;html=1;aspect=fixed;fillColor=#f8cecc;strokeColor=#b85450;opacity=50;" parent="1" vertex="1">
          <mxGeometry x="565.78" y="535.1" width="49.9" height="49.9" as="geometry" />
        </mxCell>
        <mxCell id="_7QspawQS4Bvhs6pEfHS-127" value="&lt;font style=&quot;font-size: 15px;&quot;&gt;Видео 1&lt;/font&gt;" style="rounded=0;whiteSpace=wrap;html=1;" parent="1" vertex="1">
          <mxGeometry x="266.5" y="-111.5" width="159" height="160" as="geometry" />
        </mxCell>
        <mxCell id="_7QspawQS4Bvhs6pEfHS-128" value="Название канала" style="text;html=1;align=center;verticalAlign=middle;whiteSpace=wrap;rounded=0;" parent="1" vertex="1">
          <mxGeometry x="266.5" y="58.5" width="60" height="30" as="geometry" />
        </mxCell>
        <mxCell id="_7QspawQS4Bvhs6pEfHS-129" value="Название канала" style="text;html=1;align=center;verticalAlign=middle;whiteSpace=wrap;rounded=0;" parent="1" vertex="1">
          <mxGeometry x="10" y="601" width="60" height="30" as="geometry" />
        </mxCell>
        <mxCell id="wee1dHJc4e0RbnXhPv3R-6" style="edgeStyle=orthogonalEdgeStyle;rounded=0;orthogonalLoop=1;jettySize=auto;html=1;exitX=1;exitY=0.5;exitDx=0;exitDy=0;entryX=0.5;entryY=0;entryDx=0;entryDy=0;strokeColor=#000000;strokeWidth=3;align=center;verticalAlign=middle;fontFamily=Helvetica;fontSize=11;fontColor=default;labelBackgroundColor=default;endArrow=classic;" edge="1" parent="1" source="_7QspawQS4Bvhs6pEfHS-133" target="-C6muNnnNIedRkviX2KE-19">
          <mxGeometry relative="1" as="geometry">
            <Array as="points">
              <mxPoint x="500" y="130" />
              <mxPoint x="500" y="360" />
              <mxPoint x="345" y="360" />
            </Array>
          </mxGeometry>
        </mxCell>
        <mxCell id="_7QspawQS4Bvhs6pEfHS-133" value="" style="ellipse;whiteSpace=wrap;html=1;aspect=fixed;fillColor=#f8cecc;strokeColor=#b85450;opacity=50;rounded=0;strokeWidth=3;align=center;verticalAlign=middle;fontFamily=Helvetica;fontSize=12;fontColor=default;" parent="1" vertex="1">
          <mxGeometry x="361.55" y="101.60000000000002" width="56.9" height="56.9" as="geometry" />
        </mxCell>
        <mxCell id="_7QspawQS4Bvhs6pEfHS-132" value="" style="html=1;verticalLabelPosition=bottom;align=center;labelBackgroundColor=#ffffff;verticalAlign=top;strokeWidth=2;strokeColor=#0080F0;shadow=0;dashed=0;shape=mxgraph.ios7.icons.most_viewed;pointerEvents=1" parent="1" vertex="1">
          <mxGeometry x="367" y="113.10000000000002" width="40" height="33.9" as="geometry" />
        </mxCell>
        <mxCell id="_7QspawQS4Bvhs6pEfHS-142" value="" style="whiteSpace=wrap;html=1;aspect=fixed;" parent="1" vertex="1">
          <mxGeometry x="889.95" y="1140" width="30" height="30" as="geometry" />
        </mxCell>
        <mxCell id="_7QspawQS4Bvhs6pEfHS-143" value="" style="verticalLabelPosition=bottom;verticalAlign=top;html=1;shape=mxgraph.basic.tick" parent="1" vertex="1">
          <mxGeometry x="889.95" y="1140" width="30" height="30" as="geometry" />
        </mxCell>
        <mxCell id="_7QspawQS4Bvhs6pEfHS-144" value="" style="whiteSpace=wrap;html=1;aspect=fixed;" parent="1" vertex="1">
          <mxGeometry x="889.95" y="1230" width="30" height="30" as="geometry" />
        </mxCell>
        <mxCell id="_7QspawQS4Bvhs6pEfHS-146" value="" style="whiteSpace=wrap;html=1;aspect=fixed;" parent="1" vertex="1">
          <mxGeometry x="889.95" y="1185" width="30" height="30" as="geometry" />
        </mxCell>
        <mxCell id="_7QspawQS4Bvhs6pEfHS-147" value="Канал 1" style="text;html=1;align=center;verticalAlign=middle;whiteSpace=wrap;rounded=0;fontSize=15;" parent="1" vertex="1">
          <mxGeometry x="928.45" y="1141" width="60" height="30" as="geometry" />
        </mxCell>
        <mxCell id="_7QspawQS4Bvhs6pEfHS-148" value="Канал 2" style="text;html=1;align=center;verticalAlign=middle;whiteSpace=wrap;rounded=0;fontSize=15;" parent="1" vertex="1">
          <mxGeometry x="927.45" y="1185" width="60" height="30" as="geometry" />
        </mxCell>
        <mxCell id="_7QspawQS4Bvhs6pEfHS-149" value="Канал 3" style="text;html=1;align=center;verticalAlign=middle;whiteSpace=wrap;rounded=0;fontSize=15;" parent="1" vertex="1">
          <mxGeometry x="928.45" y="1230" width="60" height="30" as="geometry" />
        </mxCell>
        <mxCell id="_7QspawQS4Bvhs6pEfHS-150" value="" style="ellipse;whiteSpace=wrap;html=1;aspect=fixed;fillColor=#f8cecc;strokeColor=#b85450;opacity=50;" parent="1" vertex="1">
          <mxGeometry x="882.7" y="1131.05" width="49.9" height="49.9" as="geometry" />
        </mxCell>
        <mxCell id="_7QspawQS4Bvhs6pEfHS-145" value="" style="verticalLabelPosition=bottom;verticalAlign=top;html=1;shape=mxgraph.basic.tick" parent="1" vertex="1">
          <mxGeometry x="889.95" y="1185" width="30" height="30" as="geometry" />
        </mxCell>
        <mxCell id="_7QspawQS4Bvhs6pEfHS-151" value="" style="ellipse;whiteSpace=wrap;html=1;aspect=fixed;fillColor=#f8cecc;strokeColor=#b85450;opacity=50;" parent="1" vertex="1">
          <mxGeometry x="880" y="1175.05" width="49.9" height="49.9" as="geometry" />
        </mxCell>
        <mxCell id="_7QspawQS4Bvhs6pEfHS-202" value="История запросов" style="rounded=0;whiteSpace=wrap;html=1;fontSize=12;fillColor=#f5f5f5;fontColor=#999999;strokeColor=#666666;align=center;verticalAlign=middle;fontFamily=Helvetica;" parent="1" vertex="1">
          <mxGeometry x="292.5" y="1100" width="120" height="60" as="geometry" />
        </mxCell>
        <mxCell id="_7QspawQS4Bvhs6pEfHS-203" value="Плейлисты" style="rounded=0;whiteSpace=wrap;html=1;fontSize=12;fillColor=#f5f5f5;fontColor=#999999;strokeColor=#666666;align=center;verticalAlign=middle;fontFamily=Helvetica;" parent="1" vertex="1">
          <mxGeometry x="292.5" y="1200" width="120" height="60" as="geometry" />
        </mxCell>
        <mxCell id="_7QspawQS4Bvhs6pEfHS-204" value="Папки каналов" style="rounded=0;whiteSpace=wrap;html=1;fontSize=15;fillColor=#f8cecc;strokeColor=#b85450;" parent="1" vertex="1">
          <mxGeometry x="285" y="1290" width="127.5" height="70" as="geometry" />
        </mxCell>
        <mxCell id="_7QspawQS4Bvhs6pEfHS-205" value="Настройки" style="rounded=0;whiteSpace=wrap;html=1;fontSize=12;fillColor=#f5f5f5;fontColor=#999999;strokeColor=#666666;align=center;verticalAlign=middle;fontFamily=Helvetica;" parent="1" vertex="1">
          <mxGeometry x="290" y="1380" width="120" height="60" as="geometry" />
        </mxCell>
        <mxCell id="_7QspawQS4Bvhs6pEfHS-207" value="" style="sketch=0;pointerEvents=1;shadow=0;dashed=0;html=1;strokeColor=none;fillColor=#505050;labelPosition=center;verticalLabelPosition=bottom;verticalAlign=top;outlineConnect=0;align=center;shape=mxgraph.office.concepts.folder;" parent="1" vertex="1">
          <mxGeometry x="579.5" y="1190" width="50.5" height="50" as="geometry" />
        </mxCell>
        <mxCell id="_7QspawQS4Bvhs6pEfHS-208" value="" style="sketch=0;pointerEvents=1;shadow=0;dashed=0;html=1;strokeColor=none;fillColor=#505050;labelPosition=center;verticalLabelPosition=bottom;verticalAlign=top;outlineConnect=0;align=center;shape=mxgraph.office.concepts.folder;" parent="1" vertex="1">
          <mxGeometry x="580" y="1270" width="50.5" height="50" as="geometry" />
        </mxCell>
        <mxCell id="_7QspawQS4Bvhs6pEfHS-209" value="Папка 1" style="text;html=1;align=center;verticalAlign=middle;whiteSpace=wrap;rounded=0;fontSize=15;" parent="1" vertex="1">
          <mxGeometry x="641.75" y="1130" width="60" height="30" as="geometry" />
        </mxCell>
        <mxCell id="_7QspawQS4Bvhs6pEfHS-210" value="Папка 2" style="text;html=1;align=center;verticalAlign=middle;whiteSpace=wrap;rounded=0;fontSize=15;" parent="1" vertex="1">
          <mxGeometry x="641.25" y="1200" width="60" height="30" as="geometry" />
        </mxCell>
        <mxCell id="_7QspawQS4Bvhs6pEfHS-211" value="Папка 3" style="text;html=1;align=center;verticalAlign=middle;whiteSpace=wrap;rounded=0;fontSize=15;" parent="1" vertex="1">
          <mxGeometry x="641.75" y="1280" width="60" height="30" as="geometry" />
        </mxCell>
        <mxCell id="_7QspawQS4Bvhs6pEfHS-213" value="" style="shape=singleArrow;direction=west;whiteSpace=wrap;html=1;" parent="1" vertex="1">
          <mxGeometry x="958" y="416" width="50" height="30" as="geometry" />
        </mxCell>
        <mxCell id="_7QspawQS4Bvhs6pEfHS-214" value="Канал 2" style="text;html=1;align=center;verticalAlign=middle;whiteSpace=wrap;rounded=0;fontSize=15;" parent="1" vertex="1">
          <mxGeometry x="1013.5" y="555" width="60" height="30" as="geometry" />
        </mxCell>
        <mxCell id="_7QspawQS4Bvhs6pEfHS-215" value="" style="group" parent="1" vertex="1" connectable="0">
          <mxGeometry x="963.5" y="545" width="50" height="50" as="geometry" />
        </mxCell>
        <mxCell id="_7QspawQS4Bvhs6pEfHS-216" value="" style="ellipse;whiteSpace=wrap;html=1;aspect=fixed;" parent="_7QspawQS4Bvhs6pEfHS-215" vertex="1">
          <mxGeometry width="50" height="50" as="geometry" />
        </mxCell>
        <mxCell id="_7QspawQS4Bvhs6pEfHS-217" value="" style="image;aspect=fixed;html=1;points=[];align=center;fontSize=12;image=img/lib/azure2/ai_machine_learning/Face_APIs.svg;" parent="_7QspawQS4Bvhs6pEfHS-215" vertex="1">
          <mxGeometry x="6.941935483870962" y="8.31483870967725" width="36.12903225806451" height="36.12903225806451" as="geometry" />
        </mxCell>
        <mxCell id="_7QspawQS4Bvhs6pEfHS-218" value="Канал 1" style="text;html=1;align=center;verticalAlign=middle;whiteSpace=wrap;rounded=0;fontSize=15;" parent="1" vertex="1">
          <mxGeometry x="1013.5" y="485" width="60" height="30" as="geometry" />
        </mxCell>
        <mxCell id="_7QspawQS4Bvhs6pEfHS-219" value="" style="group" parent="1" vertex="1" connectable="0">
          <mxGeometry x="963.5" y="475" width="50" height="50" as="geometry" />
        </mxCell>
        <mxCell id="_7QspawQS4Bvhs6pEfHS-220" value="" style="ellipse;whiteSpace=wrap;html=1;aspect=fixed;" parent="_7QspawQS4Bvhs6pEfHS-219" vertex="1">
          <mxGeometry width="50" height="50" as="geometry" />
        </mxCell>
        <mxCell id="_7QspawQS4Bvhs6pEfHS-221" value="" style="image;aspect=fixed;html=1;points=[];align=center;fontSize=12;image=img/lib/azure2/ai_machine_learning/Face_APIs.svg;" parent="_7QspawQS4Bvhs6pEfHS-219" vertex="1">
          <mxGeometry x="6.941935483870962" y="8.31483870967725" width="36.12903225806451" height="36.12903225806451" as="geometry" />
        </mxCell>
        <mxCell id="_7QspawQS4Bvhs6pEfHS-222" value="" style="group" parent="1" vertex="1" connectable="0">
          <mxGeometry x="963.5" y="615" width="50" height="50" as="geometry" />
        </mxCell>
        <mxCell id="_7QspawQS4Bvhs6pEfHS-223" value="" style="ellipse;whiteSpace=wrap;html=1;aspect=fixed;" parent="_7QspawQS4Bvhs6pEfHS-222" vertex="1">
          <mxGeometry width="50" height="50" as="geometry" />
        </mxCell>
        <mxCell id="_7QspawQS4Bvhs6pEfHS-224" value="" style="image;aspect=fixed;html=1;points=[];align=center;fontSize=12;image=img/lib/azure2/ai_machine_learning/Face_APIs.svg;" parent="_7QspawQS4Bvhs6pEfHS-222" vertex="1">
          <mxGeometry x="6.941935483870962" y="8.31483870967725" width="36.12903225806451" height="36.12903225806451" as="geometry" />
        </mxCell>
        <mxCell id="_7QspawQS4Bvhs6pEfHS-225" value="Название канала" style="text;html=1;align=center;verticalAlign=middle;whiteSpace=wrap;rounded=0;fontSize=15;" parent="1" vertex="1">
          <mxGeometry x="1008" y="625" width="90" height="30" as="geometry" />
        </mxCell>
        <mxCell id="_7QspawQS4Bvhs6pEfHS-231" value="Папка 3" style="text;html=1;align=center;verticalAlign=middle;whiteSpace=wrap;rounded=0;fontSize=11;fontFamily=Helvetica;fontColor=default;labelBackgroundColor=default;" parent="1" vertex="1">
          <mxGeometry x="1230.5" y="1321.9" width="60" height="30" as="geometry" />
        </mxCell>
        <mxCell id="_7QspawQS4Bvhs6pEfHS-232" value="" style="whiteSpace=wrap;html=1;aspect=fixed;rounded=0;opacity=70;strokeColor=#676565;align=center;verticalAlign=middle;fontFamily=Helvetica;fontSize=11;fontColor=default;labelBackgroundColor=default;" parent="1" vertex="1">
          <mxGeometry x="1192" y="1321.9" width="30" height="30" as="geometry" />
        </mxCell>
        <mxCell id="_7QspawQS4Bvhs6pEfHS-234" value="Папка 2" style="text;html=1;align=center;verticalAlign=middle;whiteSpace=wrap;rounded=0;fontSize=15;" parent="1" vertex="1">
          <mxGeometry x="1230.5" y="1271.9" width="60" height="30" as="geometry" />
        </mxCell>
        <mxCell id="_7QspawQS4Bvhs6pEfHS-235" value="" style="whiteSpace=wrap;html=1;aspect=fixed;" parent="1" vertex="1">
          <mxGeometry x="1192" y="1271.9" width="30" height="30" as="geometry" />
        </mxCell>
        <mxCell id="_7QspawQS4Bvhs6pEfHS-236" value="Папка 1" style="text;html=1;align=center;verticalAlign=middle;whiteSpace=wrap;rounded=0;fontSize=11;fontFamily=Helvetica;fontColor=default;labelBackgroundColor=default;" parent="1" vertex="1">
          <mxGeometry x="1230.5" y="1221.9" width="60" height="30" as="geometry" />
        </mxCell>
        <mxCell id="_7QspawQS4Bvhs6pEfHS-237" value="" style="whiteSpace=wrap;html=1;aspect=fixed;rounded=0;opacity=70;strokeColor=#676565;align=center;verticalAlign=middle;fontFamily=Helvetica;fontSize=11;fontColor=default;labelBackgroundColor=default;" parent="1" vertex="1">
          <mxGeometry x="1192" y="1221.9" width="30" height="30" as="geometry" />
        </mxCell>
        <mxCell id="_7QspawQS4Bvhs6pEfHS-238" value="" style="shape=singleArrow;direction=west;whiteSpace=wrap;html=1;" parent="1" vertex="1">
          <mxGeometry x="1182.12" y="1131.9" width="50" height="30" as="geometry" />
        </mxCell>
        <mxCell id="_7QspawQS4Bvhs6pEfHS-239" value="" style="group" parent="1" vertex="1" connectable="0">
          <mxGeometry x="1292" y="1121.9" width="74.5" height="36" as="geometry" />
        </mxCell>
        <mxCell id="_7QspawQS4Bvhs6pEfHS-240" value="&lt;font style=&quot;font-size: 15px;&quot;&gt;Готово&lt;/font&gt;" style="text;html=1;align=center;verticalAlign=middle;whiteSpace=wrap;rounded=0;" parent="_7QspawQS4Bvhs6pEfHS-239" vertex="1">
          <mxGeometry x="14.5" y="6" width="60" height="30" as="geometry" />
        </mxCell>
        <mxCell id="_7QspawQS4Bvhs6pEfHS-241" value="" style="verticalLabelPosition=bottom;verticalAlign=top;html=1;shape=mxgraph.basic.tick" parent="_7QspawQS4Bvhs6pEfHS-239" vertex="1">
          <mxGeometry width="30" height="30" as="geometry" />
        </mxCell>
        <mxCell id="_7QspawQS4Bvhs6pEfHS-244" value="" style="whiteSpace=wrap;html=1;aspect=fixed;rounded=0;opacity=70;strokeColor=#676565;align=center;verticalAlign=middle;fontFamily=Helvetica;fontSize=11;fontColor=default;labelBackgroundColor=default;" parent="1" vertex="1">
          <mxGeometry x="1462.5" y="1271.9" width="30" height="30" as="geometry" />
        </mxCell>
        <mxCell id="_7QspawQS4Bvhs6pEfHS-245" value="Канал 2" style="text;html=1;align=center;verticalAlign=middle;whiteSpace=wrap;rounded=0;fontSize=11;fontFamily=Helvetica;fontColor=default;labelBackgroundColor=default;" parent="1" vertex="1">
          <mxGeometry x="1501" y="1271.9" width="60" height="30" as="geometry" />
        </mxCell>
        <mxCell id="_7QspawQS4Bvhs6pEfHS-248" value="" style="shape=singleArrow;direction=west;whiteSpace=wrap;html=1;" parent="1" vertex="1">
          <mxGeometry x="1456" y="1131.9" width="50" height="30" as="geometry" />
        </mxCell>
        <mxCell id="_7QspawQS4Bvhs6pEfHS-249" value="" style="group" parent="1" vertex="1" connectable="0">
          <mxGeometry x="1565.88" y="1121.9" width="74.5" height="36" as="geometry" />
        </mxCell>
        <mxCell id="_7QspawQS4Bvhs6pEfHS-250" value="&lt;font style=&quot;font-size: 15px;&quot;&gt;Готово&lt;/font&gt;" style="text;html=1;align=center;verticalAlign=middle;whiteSpace=wrap;rounded=0;" parent="_7QspawQS4Bvhs6pEfHS-249" vertex="1">
          <mxGeometry x="14.5" y="6" width="60" height="30" as="geometry" />
        </mxCell>
        <mxCell id="_7QspawQS4Bvhs6pEfHS-251" value="" style="verticalLabelPosition=bottom;verticalAlign=top;html=1;shape=mxgraph.basic.tick" parent="_7QspawQS4Bvhs6pEfHS-249" vertex="1">
          <mxGeometry width="30" height="30" as="geometry" />
        </mxCell>
        <mxCell id="_7QspawQS4Bvhs6pEfHS-252" value="" style="whiteSpace=wrap;html=1;aspect=fixed;rounded=0;opacity=70;strokeColor=#676565;align=center;verticalAlign=middle;fontFamily=Helvetica;fontSize=11;fontColor=default;labelBackgroundColor=default;" parent="1" vertex="1">
          <mxGeometry x="1462.5" y="1221.9" width="30" height="30" as="geometry" />
        </mxCell>
        <mxCell id="_7QspawQS4Bvhs6pEfHS-253" value="" style="whiteSpace=wrap;html=1;aspect=fixed;" parent="1" vertex="1">
          <mxGeometry x="1462.5" y="1321.9" width="30" height="30" as="geometry" />
        </mxCell>
        <mxCell id="_7QspawQS4Bvhs6pEfHS-254" value="Канал 3" style="text;html=1;align=center;verticalAlign=middle;whiteSpace=wrap;rounded=0;fontSize=15;" parent="1" vertex="1">
          <mxGeometry x="1501" y="1321.9" width="60" height="30" as="geometry" />
        </mxCell>
        <mxCell id="_7QspawQS4Bvhs6pEfHS-255" value="Канал 1" style="text;html=1;align=center;verticalAlign=middle;whiteSpace=wrap;rounded=0;fontSize=11;fontFamily=Helvetica;fontColor=default;labelBackgroundColor=default;" parent="1" vertex="1">
          <mxGeometry x="1501" y="1221.9" width="60" height="30" as="geometry" />
        </mxCell>
        <mxCell id="9P0sogdfffshUX55kIWg-1" value="" style="sketch=0;pointerEvents=1;shadow=0;dashed=0;html=1;strokeColor=none;fillColor=#505050;labelPosition=center;verticalLabelPosition=bottom;verticalAlign=top;outlineConnect=0;align=center;shape=mxgraph.office.concepts.folder;" parent="1" vertex="1">
          <mxGeometry x="580" y="1120" width="50.5" height="50" as="geometry" />
        </mxCell>
        <mxCell id="9P0sogdfffshUX55kIWg-3" value="" style="shape=image;html=1;verticalAlign=top;verticalLabelPosition=bottom;labelBackgroundColor=#ffffff;imageAspect=0;aspect=fixed;image=https://cdn4.iconfinder.com/data/icons/evil-icons-user-interface/64/plus-128.png" parent="1" vertex="1">
          <mxGeometry x="706.5" y="1191" width="48" height="48" as="geometry" />
        </mxCell>
        <mxCell id="9P0sogdfffshUX55kIWg-4" value="" style="shape=image;html=1;verticalAlign=top;verticalLabelPosition=bottom;labelBackgroundColor=#ffffff;imageAspect=0;aspect=fixed;image=https://cdn4.iconfinder.com/data/icons/evil-icons-user-interface/64/plus-128.png" parent="1" vertex="1">
          <mxGeometry x="706.5" y="1271" width="48" height="48" as="geometry" />
        </mxCell>
        <mxCell id="9P0sogdfffshUX55kIWg-7" value="" style="ellipse;whiteSpace=wrap;html=1;aspect=fixed;fillColor=#f8cecc;strokeColor=#b85450;opacity=50;rounded=0;strokeWidth=3;align=center;verticalAlign=middle;fontFamily=Helvetica;fontSize=12;fontColor=default;container=0;" parent="1" vertex="1">
          <mxGeometry x="710" y="1122.75" width="44.5" height="44.5" as="geometry" />
        </mxCell>
        <mxCell id="wee1dHJc4e0RbnXhPv3R-7" style="edgeStyle=orthogonalEdgeStyle;rounded=0;orthogonalLoop=1;jettySize=auto;html=1;exitX=1;exitY=0.5;exitDx=0;exitDy=0;strokeColor=#000000;strokeWidth=3;align=center;verticalAlign=middle;fontFamily=Helvetica;fontSize=11;fontColor=default;labelBackgroundColor=default;endArrow=classic;" edge="1" parent="1" source="9P0sogdfffshUX55kIWg-2">
          <mxGeometry relative="1" as="geometry">
            <mxPoint x="883" y="1290" as="targetPoint" />
            <Array as="points">
              <mxPoint x="819" y="1145" />
              <mxPoint x="819" y="1290" />
              <mxPoint x="883" y="1290" />
            </Array>
          </mxGeometry>
        </mxCell>
        <mxCell id="9P0sogdfffshUX55kIWg-2" value="" style="shape=image;html=1;verticalAlign=top;verticalLabelPosition=bottom;labelBackgroundColor=#ffffff;imageAspect=0;aspect=fixed;image=https://cdn4.iconfinder.com/data/icons/evil-icons-user-interface/64/plus-128.png" parent="1" vertex="1">
          <mxGeometry x="710.5" y="1122.75" width="44" height="44" as="geometry" />
        </mxCell>
        <mxCell id="9P0sogdfffshUX55kIWg-8" value="" style="ellipse;whiteSpace=wrap;html=1;aspect=fixed;opacity=50;rounded=0;strokeWidth=3;align=center;verticalAlign=middle;fontFamily=Helvetica;fontSize=12;container=0;fillColor=#f5f5f5;strokeColor=#666666;fontColor=#333333;" parent="1" vertex="1">
          <mxGeometry x="568.42" y="1108.1699999999998" width="73.66" height="73.66" as="geometry" />
        </mxCell>
        <mxCell id="wee1dHJc4e0RbnXhPv3R-2" style="edgeStyle=orthogonalEdgeStyle;rounded=0;orthogonalLoop=1;jettySize=auto;html=1;exitX=1;exitY=0.25;exitDx=0;exitDy=0;entryX=-0.005;entryY=0.628;entryDx=0;entryDy=0;entryPerimeter=0;strokeColor=#000000;strokeWidth=3;align=center;verticalAlign=middle;fontFamily=Helvetica;fontSize=11;fontColor=default;labelBackgroundColor=default;endArrow=classic;" edge="1" parent="1" target="-C6muNnnNIedRkviX2KE-19">
          <mxGeometry relative="1" as="geometry">
            <mxPoint x="175" y="618.5" as="sourcePoint" />
            <mxPoint x="230" y="687" as="targetPoint" />
            <Array as="points">
              <mxPoint x="212" y="619" />
              <mxPoint x="212" y="687" />
            </Array>
          </mxGeometry>
        </mxCell>
        <mxCell id="wee1dHJc4e0RbnXhPv3R-3" style="edgeStyle=orthogonalEdgeStyle;rounded=0;orthogonalLoop=1;jettySize=auto;html=1;exitX=1;exitY=0.5;exitDx=0;exitDy=0;entryX=0.024;entryY=0.683;entryDx=0;entryDy=0;entryPerimeter=0;strokeColor=#000000;strokeWidth=3;align=center;verticalAlign=middle;fontFamily=Helvetica;fontSize=11;fontColor=default;labelBackgroundColor=default;endArrow=classic;" edge="1" parent="1" source="_7QspawQS4Bvhs6pEfHS-82" target="-C6muNnnNIedRkviX2KE-18">
          <mxGeometry relative="1" as="geometry">
            <Array as="points">
              <mxPoint x="220" y="804" />
              <mxPoint x="220" y="1330" />
            </Array>
          </mxGeometry>
        </mxCell>
        <mxCell id="wee1dHJc4e0RbnXhPv3R-9" value="" style="group" vertex="1" connectable="0" parent="1">
          <mxGeometry x="690" y="440" width="74.5" height="60" as="geometry" />
        </mxCell>
        <mxCell id="wee1dHJc4e0RbnXhPv3R-10" value="&lt;font style=&quot;font-size: 15px;&quot;&gt;Готово&lt;/font&gt;" style="text;html=1;align=center;verticalAlign=middle;whiteSpace=wrap;rounded=0;" vertex="1" parent="wee1dHJc4e0RbnXhPv3R-9">
          <mxGeometry x="14.5" y="6" width="60" height="30" as="geometry" />
        </mxCell>
        <mxCell id="wee1dHJc4e0RbnXhPv3R-11" value="" style="verticalLabelPosition=bottom;verticalAlign=top;html=1;shape=mxgraph.basic.tick" vertex="1" parent="wee1dHJc4e0RbnXhPv3R-9">
          <mxGeometry width="30" height="30" as="geometry" />
        </mxCell>
        <mxCell id="wee1dHJc4e0RbnXhPv3R-12" value="" style="ellipse;whiteSpace=wrap;html=1;aspect=fixed;fillColor=#f8cecc;strokeColor=#b85450;opacity=50;" vertex="1" parent="wee1dHJc4e0RbnXhPv3R-9">
          <mxGeometry y="-10.969999999999999" width="63.95" height="63.95" as="geometry" />
        </mxCell>
        <mxCell id="wee1dHJc4e0RbnXhPv3R-14" style="edgeStyle=orthogonalEdgeStyle;rounded=0;orthogonalLoop=1;jettySize=auto;html=1;exitX=0.5;exitY=0;exitDx=0;exitDy=0;entryX=0;entryY=0.5;entryDx=0;entryDy=0;dashed=1;strokeColor=default;strokeWidth=3;align=center;verticalAlign=middle;spacing=6;fontFamily=Helvetica;fontSize=14;fontColor=default;labelBackgroundColor=#ffffff;startArrow=none;startFill=0;startSize=6;endArrow=classic;endFill=1;endSize=6;" edge="1" parent="1" source="wee1dHJc4e0RbnXhPv3R-8" target="-C6muNnnNIedRkviX2KE-52">
          <mxGeometry relative="1" as="geometry">
            <mxPoint x="980" y="840" as="targetPoint" />
            <Array as="points">
              <mxPoint x="1036" y="1039" />
              <mxPoint x="860" y="1039" />
              <mxPoint x="860" y="610" />
            </Array>
          </mxGeometry>
        </mxCell>
        <mxCell id="wee1dHJc4e0RbnXhPv3R-17" value="&lt;br&gt;&lt;span style=&quot;color: rgb(0, 0, 0); font-family: Helvetica; font-size: 17px; font-style: normal; font-variant-ligatures: normal; font-variant-caps: normal; font-weight: 400; letter-spacing: normal; orphans: 2; text-align: center; text-indent: 0px; text-transform: none; widows: 2; word-spacing: 0px; -webkit-text-stroke-width: 0px; white-space: normal; background-color: rgb(251, 251, 251); text-decoration-thickness: initial; text-decoration-style: initial; text-decoration-color: initial; float: none; display: inline !important;&quot;&gt;Кнопка &quot;назад&quot; (&amp;lt;-) возвращает на ту предыдущую страницу, с которой пользователь зашёл в текущее меню.&lt;/span&gt;&lt;br style=&quot;forced-color-adjust: none; color: rgb(0, 0, 0); font-family: Helvetica; font-size: 17px; font-style: normal; font-variant-ligatures: normal; font-variant-caps: normal; font-weight: 400; letter-spacing: normal; orphans: 2; text-align: center; text-indent: 0px; text-transform: none; widows: 2; word-spacing: 0px; -webkit-text-stroke-width: 0px; white-space: normal; background-color: rgb(251, 251, 251); text-decoration-thickness: initial; text-decoration-style: initial; text-decoration-color: initial;&quot;&gt;&lt;span style=&quot;color: rgb(0, 0, 0); font-family: Helvetica; font-size: 17px; font-style: normal; font-variant-ligatures: normal; font-variant-caps: normal; font-weight: 400; letter-spacing: normal; orphans: 2; text-align: center; text-indent: 0px; text-transform: none; widows: 2; word-spacing: 0px; -webkit-text-stroke-width: 0px; white-space: normal; background-color: rgb(251, 251, 251); text-decoration-thickness: initial; text-decoration-style: initial; text-decoration-color: initial; float: none; display: inline !important;&quot;&gt;т.е. для нашего макета:&lt;/span&gt;&lt;div style=&quot;forced-color-adjust: none; color: rgb(0, 0, 0); font-family: Helvetica; font-size: 17px; font-style: normal; font-variant-ligatures: normal; font-variant-caps: normal; font-weight: 400; letter-spacing: normal; orphans: 2; text-align: center; text-indent: 0px; text-transform: none; widows: 2; word-spacing: 0px; -webkit-text-stroke-width: 0px; white-space: normal; background-color: rgb(251, 251, 251); text-decoration-thickness: initial; text-decoration-style: initial; text-decoration-color: initial;&quot;&gt;&lt;div&gt;0.2 возвращается в 0.1&lt;/div&gt;&lt;div&gt;0.1 возвращается в 1.0 или 0.0&lt;br&gt;&lt;/div&gt;&lt;/div&gt;&lt;div style=&quot;forced-color-adjust: none; color: rgb(0, 0, 0); font-family: Helvetica; font-size: 17px; font-style: normal; font-variant-ligatures: normal; font-variant-caps: normal; font-weight: 400; letter-spacing: normal; orphans: 2; text-align: center; text-indent: 0px; text-transform: none; widows: 2; word-spacing: 0px; -webkit-text-stroke-width: 0px; white-space: normal; background-color: rgb(251, 251, 251); text-decoration-thickness: initial; text-decoration-style: initial; text-decoration-color: initial;&quot;&gt;4.2 возвращается в 4.1&lt;br style=&quot;forced-color-adjust: none; font-size: 17px;&quot;&gt;4.1 возвращается в 4.0&lt;/div&gt;&lt;div&gt;&lt;br&gt;&lt;/div&gt;" style="text;html=1;align=center;verticalAlign=middle;whiteSpace=wrap;rounded=0;fontSize=17;" vertex="1" parent="1">
          <mxGeometry x="550" y="147" width="309.9" height="171.5" as="geometry" />
        </mxCell>
        <mxCell id="wee1dHJc4e0RbnXhPv3R-18" style="edgeStyle=orthogonalEdgeStyle;rounded=0;orthogonalLoop=1;jettySize=auto;html=1;exitX=0.5;exitY=1;exitDx=0;exitDy=0;opacity=70;strokeColor=#666666;align=center;verticalAlign=middle;fontFamily=Helvetica;fontSize=11;fontColor=default;labelBackgroundColor=default;endArrow=classic;fillColor=#f5f5f5;entryX=0;entryY=0;entryDx=20;entryDy=19.5;entryPerimeter=0;" edge="1" parent="1" source="wee1dHJc4e0RbnXhPv3R-17" target="_7QspawQS4Bvhs6pEfHS-99">
          <mxGeometry relative="1" as="geometry">
            <mxPoint x="706.5" y="338.52" as="sourcePoint" />
            <mxPoint x="610" y="440" as="targetPoint" />
            <Array as="points">
              <mxPoint x="705" y="338" />
              <mxPoint x="611" y="338" />
            </Array>
          </mxGeometry>
        </mxCell>
        <mxCell id="wee1dHJc4e0RbnXhPv3R-20" style="edgeStyle=orthogonalEdgeStyle;rounded=0;orthogonalLoop=1;jettySize=auto;html=1;exitX=0.5;exitY=1;exitDx=0;exitDy=0;entryX=0.5;entryY=0;entryDx=0;entryDy=0;opacity=70;strokeColor=#666666;align=center;verticalAlign=middle;fontFamily=Helvetica;fontSize=11;fontColor=default;labelBackgroundColor=default;endArrow=classic;fillColor=#f5f5f5;" edge="1" parent="1" source="wee1dHJc4e0RbnXhPv3R-19" target="wee1dHJc4e0RbnXhPv3R-12">
          <mxGeometry relative="1" as="geometry" />
        </mxCell>
        <mxCell id="wee1dHJc4e0RbnXhPv3R-19" value="&lt;div&gt;&lt;font style=&quot;font-size: 17px;&quot;&gt;После нажатия кнопки &quot;Готово&quot; на экранах 0.2 или 4.2 все выбранные каналы попадают в выбранную папку и запускается череда авто нажатий кнопки &quot;назад&quot; пока не вернётся на предыдущий экран&lt;/font&gt;&lt;br&gt;&lt;/div&gt;" style="text;html=1;align=center;verticalAlign=middle;whiteSpace=wrap;rounded=0;fontSize=17;" vertex="1" parent="1">
          <mxGeometry x="913.53" y="161.25" width="278.95" height="143" as="geometry" />
        </mxCell>
        <mxCell id="wee1dHJc4e0RbnXhPv3R-25" value="" style="verticalLabelPosition=bottom;verticalAlign=top;html=1;shape=mxgraph.basic.no_symbol;fillColor=#f5f5f5;fontColor=#333333;strokeColor=#666666;" vertex="1" parent="1">
          <mxGeometry x="1191.5" y="1221.9" width="30.5" height="33.1" as="geometry" />
        </mxCell>
        <mxCell id="wee1dHJc4e0RbnXhPv3R-26" value="" style="verticalLabelPosition=bottom;verticalAlign=top;html=1;shape=mxgraph.basic.no_symbol;fillColor=#f5f5f5;fontColor=#333333;strokeColor=#666666;" vertex="1" parent="1">
          <mxGeometry x="1191.5" y="1321.9" width="30.5" height="33.1" as="geometry" />
        </mxCell>
        <mxCell id="wee1dHJc4e0RbnXhPv3R-27" value="" style="verticalLabelPosition=bottom;verticalAlign=top;html=1;shape=mxgraph.basic.no_symbol;fillColor=#f5f5f5;fontColor=#333333;strokeColor=#666666;" vertex="1" parent="1">
          <mxGeometry x="1462" y="1221.9" width="30.5" height="33.1" as="geometry" />
        </mxCell>
        <mxCell id="wee1dHJc4e0RbnXhPv3R-28" value="" style="verticalLabelPosition=bottom;verticalAlign=top;html=1;shape=mxgraph.basic.no_symbol;fillColor=#f5f5f5;fontColor=#333333;strokeColor=#666666;" vertex="1" parent="1">
          <mxGeometry x="1462" y="1268.8000000000002" width="30.5" height="33.1" as="geometry" />
        </mxCell>
      </root>
    </mxGraphModel>
  </diagram>
</mxfile>
